<svg width="300" height="50" viewBox="0 0 160 25" fill="none" xmlns="http://www.w3.org/2000/svg">
  <path
    d="M15.6992 3.56642H21.3387L21.5033 5.66069C21.5033 5.66069 22.4788 3.35699 24.0213 3.27692C25.5638 3.19684 27.1551 3.89288 27.1977 6.07338C27.2404 8.25388 25.6065 8.82673 24.7712 8.82673C23.936 8.82673 22.3325 7.55169 22.3325 7.55169C22.3325 7.55169 21.3936 7.92126 21.357 10.5083C21.3204 13.0953 21.3387 15.2389 21.3387 15.2389H15.8516L15.6992 3.56642Z"
    fill="#E64427" />
  <path
    d="M40.3911 3.56641V15.2697H46.1648V7.67488C46.2089 7.40411 46.3488 7.15873 46.5585 6.98429C46.7682 6.80984 47.0334 6.71817 47.3049 6.72629C48.2803 6.76941 48.445 7.92126 48.445 7.92126V15.2389H53.7126V7.23138C53.7126 7.23138 53.8345 4.9708 52.3103 3.96679C51.6559 3.47264 50.875 3.17862 50.0601 3.11966C49.2452 3.0607 48.4307 3.23927 47.7133 3.63417C47.1636 3.91738 46.6565 4.27826 46.2074 4.70594L46.0428 3.55409L40.3911 3.56641Z"
    fill="#E64427" />
  <path
    d="M65.2355 4.22546L64.0162 7.102C64.0162 7.102 61.6933 4.96461 60.6385 5.87008C59.3643 6.95417 61.3702 7.87811 63.0773 8.33392C64.7843 8.78973 65.7598 9.97854 65.7233 11.6232C65.6867 13.2678 64.1381 14.9493 62.5103 15.362C60.9541 15.7989 59.3113 15.8117 57.7487 15.399C56.5912 15.0204 55.4852 14.4968 54.4564 13.8406L55.755 10.7978C55.755 10.7978 56.7305 12.4424 58.2791 12.6457C59.8277 12.8489 60.7605 11.5369 59.4192 10.8409C58.0779 10.1448 56.0538 9.81223 55.2795 8.00746C54.5052 6.2027 54.9137 4.10843 57.3524 3.36311C59.7911 2.6178 63.6199 2.95042 65.2355 4.22546Z"
    fill="#E64427" />
  <path
    d="M9.60242 0.0309071C7.11494 -0.0368486 0 0.0309071 0 0.0309071V15.2328H6.22481V9.11018C7.29916 9.88787 8.60655 10.2665 9.92555 10.182C11.0928 10.0287 12.1678 9.4603 12.9577 8.57869C13.7477 7.69708 14.2008 6.55995 14.236 5.37129C14.2786 2.70418 12.5289 0.110982 9.60242 0.0309071V0.0309071ZM6.22481 6.60937V3.15383C6.22481 3.15383 8.66352 2.74114 8.62084 4.92164C8.57816 7.10214 6.22481 6.60937 6.22481 6.60937Z"
    fill="#E64427" />
  <path
    d="M38.3548 5.58056C37.794 4.82685 37.0718 4.21106 36.2421 3.77927C35.4124 3.34748 34.4968 3.11088 33.5638 3.08718C32.6308 3.06348 31.7046 3.2533 30.8545 3.64242C30.0044 4.03154 29.2524 4.60989 28.6548 5.33418C27.7973 6.46173 27.3375 7.84655 27.3486 9.26845C27.3596 10.6904 27.8409 12.0677 28.7158 13.1815C30.3863 15.0725 32.0142 15.2758 34.1236 15.2327C35.7813 15.2066 37.3675 14.5462 38.5621 13.3848C39.7022 12.1529 39.251 11.0441 39.251 11.0441C38.2733 11.6927 37.1396 12.061 35.971 12.1098C33.4103 12.196 33.2457 10.2619 33.2457 10.2619L39.4278 10.305C39.4278 10.305 39.6107 7.2991 38.367 5.58056H38.3548ZM32.9896 8.00745C32.9896 8.00745 33.0262 6.28276 34.4102 6.2458C35.7942 6.20884 35.7942 8.00745 35.7942 8.00745H32.9896Z"
    fill="#E64427" />
  <path
    d="M77.7339 6.48605C77.0023 4.55193 74.9233 3.1537 72.5638 2.98739C71.4621 2.85966 70.3461 2.97347 69.2918 3.32106C68.2376 3.66866 67.2699 4.24186 66.4549 5.00158L66.4976 8.21074C67.5339 7.34777 68.8587 6.91999 70.1983 7.01578C70.7371 7.03078 71.2504 7.25125 71.6349 7.63289C72.0194 8.01453 72.2468 8.52906 72.2712 9.07309C72.2712 9.07309 69.8325 8.45713 68.6497 8.99301C67.9179 9.25272 67.2948 9.75516 66.8818 10.4185C66.4689 11.0818 66.2905 11.8668 66.3756 12.6457C66.5768 14.5798 67.7596 15.399 69.3021 15.4421C69.8895 15.4685 70.4749 15.3558 71.0116 15.113C71.5482 14.8702 72.0213 14.5041 72.3931 14.0439L72.5151 15.2389H77.7644C77.7644 15.2389 78.496 8.41401 77.7644 6.48605H77.7339ZM71.942 12.7689C71.1677 13.3047 69.9361 12.7381 70.1495 11.7032C70.3141 10.921 70.9665 10.5514 72.3505 10.7978C72.3505 10.7978 72.5882 12.3254 71.942 12.7689Z"
    fill="#E64427" />
  <path
    d="M111.388 3.76351H117.058L117.223 5.83314C117.223 5.83314 118.204 3.56024 119.753 3.48017C121.301 3.40009 122.905 4.09613 122.941 6.24583C122.976 6.58739 122.94 6.93253 122.835 7.25911C122.73 7.5857 122.559 7.88653 122.332 8.14229C122.105 8.39806 121.828 8.60312 121.518 8.74432C121.209 8.88552 120.873 8.95974 120.533 8.96222C119.674 8.96222 118.095 7.7303 118.095 7.7303C118.095 7.7303 117.15 8.09372 117.113 10.6561C117.076 13.2185 117.07 15.3251 117.07 15.3251H111.583L111.388 3.76351Z"
    fill="#E64427" />
  <path
    d="M135.958 3.76351H141.598L141.762 5.83314C141.762 5.83314 142.744 3.56024 144.292 3.48017C145.841 3.40009 147.438 4.09613 147.481 6.24583C147.516 6.58996 147.479 6.93771 147.372 7.26642C147.266 7.59514 147.091 7.89746 146.861 8.15371C146.631 8.40996 146.35 8.61439 146.037 8.75369C145.724 8.89299 145.385 8.96404 145.042 8.96222C144.183 8.96222 142.603 7.7303 142.603 7.7303C142.603 7.7303 141.665 8.09372 141.628 10.6561C141.591 13.2185 141.585 15.3251 141.585 15.3251H136.068L135.958 3.76351Z"
    fill="#E64427" />
  <path
    d="M134.129 5.75307C133.555 5.0077 132.824 4.401 131.989 3.97715C131.154 3.55329 130.235 3.32295 129.301 3.30289C128.367 3.28282 127.439 3.47355 126.587 3.86118C125.735 4.2488 124.979 4.82358 124.374 5.54364C123.517 6.65504 123.059 8.02742 123.074 9.4362C123.09 10.845 123.578 12.2067 124.46 13.2986C126.136 15.1465 127.77 15.3744 129.892 15.3313C131.555 15.3044 133.146 14.6444 134.349 13.4834C135.495 12.2515 135.044 11.1674 135.044 11.1674C134.053 11.8124 132.91 12.1781 131.733 12.2268C129.16 12.3069 128.996 10.3789 128.996 10.3789L135.208 10.4221C135.208 10.4221 135.391 7.45312 134.141 5.74691L134.129 5.75307ZM128.752 8.14916C128.752 8.14916 128.788 6.44295 130.178 6.39983C131.568 6.35671 131.568 8.14916 131.568 8.14916H128.752Z"
    fill="#E64427" />
  <path
    d="M159.937 6.64622C159.205 4.73674 157.12 3.35698 154.748 3.19683C153.639 3.0645 152.514 3.17357 151.45 3.51674C150.386 3.8599 149.407 4.4292 148.578 5.18639L148.621 8.35859C149.669 7.50496 150.997 7.08258 152.34 7.17594C152.877 7.18613 153.39 7.40155 153.776 7.77875C154.161 8.15596 154.391 8.66692 154.419 9.20862C154.419 9.20862 151.98 8.62345 150.761 9.12854C150.03 9.37893 149.405 9.87351 148.989 10.5308C148.574 11.188 148.392 11.9688 148.475 12.7442C148.481 13.1228 148.562 13.4962 148.715 13.8421C148.867 14.188 149.087 14.4991 149.362 14.7569C149.636 15.0147 149.96 15.2137 150.312 15.342C150.665 15.4704 151.039 15.5254 151.413 15.5037C152.002 15.5328 152.589 15.4233 153.129 15.1838C153.668 14.9444 154.146 14.5816 154.523 14.124L154.645 15.3005H159.912C159.912 15.3005 160.65 8.5557 159.912 6.67702L159.937 6.64622ZM154.072 12.8982C153.297 13.428 152.054 12.8613 152.273 11.8388C152.438 11.0688 153.09 10.6992 154.48 10.9456C154.48 10.9456 154.724 12.4547 154.072 12.8982"
    fill="#E64427" />
  <path
    d="M88.4337 0C86.8791 0 81.2395 1.04713 81.1786 7.69336C81.1176 14.9555 86.9339 15.5161 88.2813 15.5407C89.8909 15.5715 95.5304 15.1711 95.7133 8.14917C95.8962 1.12721 90.0128 0.0307981 88.4337 0ZM88.4337 9.05463C88.2184 9.05866 88.0048 9.01617 87.807 8.93002C87.6093 8.84387 87.432 8.71604 87.2872 8.55508C87.1423 8.39412 87.0331 8.20375 86.9669 7.99671C86.9007 7.78968 86.8791 7.57075 86.9035 7.35458C86.8927 7.14005 86.9253 6.92556 86.9992 6.72416C87.0731 6.52276 87.1868 6.33867 87.3334 6.18308C87.48 6.0275 87.6564 5.90368 87.8518 5.81916C88.0473 5.73465 88.2577 5.69121 88.4703 5.69148C88.6907 5.6931 88.9082 5.74092 89.1093 5.83193C89.3104 5.92294 89.4906 6.05514 89.6385 6.22017C89.7863 6.3852 89.8987 6.57946 89.9684 6.79063C90.038 7.00181 90.0636 7.22531 90.0433 7.44697C90.0586 7.66635 90.0263 7.88645 89.9486 8.09188C89.8709 8.29731 89.7497 8.4831 89.5934 8.63624C89.4372 8.78938 89.2497 8.90618 89.0442 8.97845C88.8386 9.05072 88.6198 9.07672 88.4033 9.05463"
    fill="#E64427" />
  <path
    d="M106.401 3.51097C105.147 3.10548 103.789 3.19349 102.597 3.75736V0.369568H96.6522V15.3251C96.6522 15.3251 101.53 15.3867 105.06 15.3251C107.761 15.282 110.181 12.0975 110.303 9.23325C110.425 6.36903 108.23 4.24397 106.401 3.51097V3.51097ZM102.633 11.0011V8.00749C102.633 8.00749 104.767 7.65023 104.73 9.55355C104.694 11.4569 102.633 11.0257 102.633 11.0257"
    fill="#E64427" />
  <path
    d="M47 22.9014V19.335H48.5181C48.9323 19.3024 49.3451 19.4132 49.6887 19.6491C49.8179 19.7759 49.9177 19.93 49.981 20.1005C50.0442 20.2709 50.0693 20.4533 50.0545 20.6347C50.07 20.8037 50.0485 20.974 49.9916 21.1337C49.9347 21.2933 49.8438 21.4384 49.7252 21.5586C49.4166 21.7788 49.0408 21.8814 48.6644 21.8481H48.2681V22.9014H47ZM48.2742 20.3267V20.9427H48.4693C48.5689 20.9471 48.6672 20.9191 48.7498 20.8626C48.7817 20.836 48.8074 20.8026 48.8251 20.7648C48.8427 20.727 48.8519 20.6857 48.8519 20.6439C48.8519 20.6021 48.8427 20.5608 48.8251 20.523C48.8074 20.4852 48.7817 20.4518 48.7498 20.4253C48.6713 20.365 48.5735 20.3365 48.4754 20.3452L48.2742 20.3267Z"
    fill="black" />
  <path
    d="M54.1028 21.1274C54.107 21.377 54.0592 21.6246 53.9626 21.8543C53.872 22.0855 53.735 22.2952 53.5602 22.4702C53.3868 22.6452 53.1792 22.7816 52.9505 22.8706C52.7158 22.9648 52.4654 23.0128 52.2128 23.0123C51.9582 23.0129 51.7059 22.9648 51.469 22.8706C51.2431 22.7763 51.0364 22.6405 50.8593 22.4702C50.6877 22.2938 50.553 22.0843 50.463 21.8543C50.3712 21.6212 50.3257 21.3721 50.3289 21.1213C50.3257 20.8684 50.3712 20.6174 50.463 20.3821C50.5484 20.1497 50.6837 19.9393 50.8593 19.7662C51.0334 19.5906 51.2408 19.4523 51.469 19.3596C51.707 19.2704 51.9589 19.2245 52.2128 19.2241C52.4668 19.224 52.7187 19.2699 52.9566 19.3596C53.1855 19.451 53.3932 19.5894 53.5663 19.7662C53.7444 19.9385 53.8819 20.149 53.9687 20.3821C54.0611 20.615 54.1067 20.8642 54.1028 21.1151V21.1274ZM52.2128 21.7865C52.2939 21.7896 52.3748 21.7746 52.4496 21.7427C52.5244 21.7108 52.5913 21.6627 52.6457 21.6017C52.7578 21.4658 52.8145 21.2918 52.8042 21.1151C52.8148 20.9365 52.7582 20.7605 52.6457 20.6224C52.589 20.5646 52.5216 20.5188 52.4473 20.4875C52.373 20.4563 52.2933 20.4402 52.2128 20.4402C52.1323 20.4402 52.0526 20.4563 51.9783 20.4875C51.904 20.5188 51.8366 20.5646 51.7799 20.6224C51.6657 20.7599 51.607 20.9358 51.6153 21.1151C51.6067 21.2926 51.6656 21.4667 51.7799 21.6017C51.8343 21.6627 51.9012 21.7108 51.976 21.7427C52.0508 21.7746 52.1317 21.7896 52.2128 21.7865"
    fill="black" />
  <path
    d="M54.5906 22.9015V19.3351H56.1879C56.5663 19.3098 56.9414 19.4187 57.2488 19.6431C57.3729 19.7541 57.4703 19.8922 57.5337 20.047C57.5971 20.2017 57.6247 20.369 57.6146 20.5362C57.6212 20.7561 57.557 20.9723 57.4317 21.1522C57.372 21.2315 57.2968 21.2976 57.2108 21.3463C57.1248 21.395 57.0298 21.4254 56.9317 21.4355L57.9011 22.9015H56.4745L55.8648 21.725V22.9015H54.5906ZM55.8099 20.2529V20.9427H56.0111C56.1102 20.9516 56.2088 20.9206 56.2855 20.8565C56.3194 20.8244 56.3457 20.7851 56.3626 20.7414C56.3795 20.6977 56.3865 20.6507 56.383 20.604C56.3862 20.5553 56.3791 20.5066 56.3623 20.461C56.3455 20.4153 56.3193 20.3738 56.2855 20.3391C56.2094 20.2734 56.111 20.2402 56.0111 20.2467L55.8099 20.2529Z"
    fill="black" />
  <path
    d="M59.3948 21.2691V19.335H60.6629V21.2815C60.652 21.4397 60.6792 21.5982 60.7422 21.7434C60.776 21.7837 60.818 21.816 60.8654 21.8382C60.9128 21.8603 60.9643 21.8718 61.0166 21.8718C61.0688 21.8718 61.1204 21.8603 61.1677 21.8382C61.2151 21.816 61.2571 21.7837 61.2909 21.7434C61.3533 21.598 61.3804 21.4396 61.3702 21.2815V19.335H62.6383V21.2691C62.6429 21.4756 62.6266 21.682 62.5895 21.8851C62.5637 22.0308 62.512 22.1706 62.4371 22.2978C62.2855 22.5227 62.0742 22.6999 61.8274 22.809C61.5659 22.9314 61.2803 22.9924 60.9922 22.9877C60.7021 22.9919 60.4147 22.9309 60.1508 22.809C59.9035 22.7008 59.692 22.5234 59.5411 22.2978C59.4669 22.1725 59.4153 22.0348 59.3887 21.8913C59.3547 21.6878 59.3384 21.4817 59.3399 21.2753"
    fill="black" />
  <path
    d="M63.254 22.9015V19.335H64.4734L65.5708 21.1829C65.5708 21.1029 65.5708 21.0105 65.5403 20.9119C65.5098 20.8134 65.5403 20.6778 65.5403 20.5177V19.2858H66.7597V22.8522H65.5037L64.4185 21.0043C64.4185 21.0844 64.4185 21.1706 64.449 21.263C64.4795 21.3554 64.449 21.454 64.449 21.5648V22.8522L63.254 22.9015Z"
    fill="black" />
  <path
    d="M68.5704 22.9015V19.335H70.0946C70.5071 19.3003 70.9187 19.4113 71.2591 19.6492C71.3903 19.7761 71.4918 19.931 71.5561 20.1025C71.6204 20.2741 71.646 20.458 71.631 20.6409C71.6472 20.8079 71.6272 20.9765 71.5724 21.135C71.5177 21.2935 71.4295 21.438 71.314 21.5587C71.0068 21.777 70.6335 21.8794 70.2592 21.8482H69.863V22.8953L68.5704 22.9015ZM69.8508 20.3267V20.9427H70.0459C70.1448 20.949 70.2431 20.9231 70.3263 20.8688C70.357 20.8411 70.3812 20.8068 70.3971 20.7684C70.4129 20.7301 70.42 20.6886 70.4178 20.647C70.4197 20.605 70.4119 20.563 70.3949 20.5245C70.378 20.486 70.3524 20.4521 70.3202 20.4253C70.2392 20.3711 70.1428 20.3451 70.0459 20.3514L69.8508 20.3267Z"
    fill="black" />
  <path
    d="M71.314 22.9014L72.5699 19.335H73.9844L75.2037 22.9014H73.8319L73.7222 22.4579H72.765L72.6553 22.9014H71.314ZM72.9967 21.6079H73.5271L73.4173 21.2014C73.3625 20.9981 73.3259 20.8441 73.3076 20.7333C73.2841 20.6302 73.2718 20.5249 73.271 20.4191V20.4191C73.2795 20.5237 73.2795 20.6287 73.271 20.7333C73.271 20.8441 73.2101 20.9981 73.1613 21.2014L72.9967 21.6079Z"
    fill="black" />
  <path
    d="M75.4658 22.9076V19.335H77.0632C77.4434 19.3099 77.8205 19.4187 78.1301 19.643C78.2528 19.7552 78.3493 19.8935 78.4126 20.048C78.4759 20.2024 78.5043 20.3692 78.4959 20.5362C78.5035 20.7562 78.4392 20.9726 78.313 21.1521C78.1903 21.311 78.0108 21.415 77.8131 21.4416L78.752 22.8953H77.3314L76.7218 21.7127V22.8953L75.4658 22.9076ZM76.7157 20.259V20.9427H76.9108C77.0125 20.9495 77.113 20.9164 77.1912 20.8503C77.2255 20.8185 77.2521 20.7792 77.269 20.7355C77.2859 20.6917 77.2927 20.6446 77.2888 20.5978C77.2919 20.5492 77.2849 20.5004 77.2681 20.4548C77.2513 20.4091 77.2251 20.3676 77.1912 20.3329C77.1107 20.2716 77.0114 20.2411 76.9108 20.2467L76.7157 20.259Z"
    fill="black" />
  <path d="M79.4166 22.9076V20.5053H78.7094V19.335H81.392V20.5053H80.6847V22.9076H79.4166Z" fill="black" />
  <path d="M83.0746 19.335H81.7821V22.9014H83.0746V19.335Z" fill="black" />
  <path
    d="M83.7147 22.9015V19.335H84.7268C85.0062 19.3317 85.2855 19.3502 85.562 19.3905C85.7582 19.4168 85.9494 19.4729 86.1291 19.5568C86.4158 19.708 86.6577 19.9333 86.8302 20.2097C86.9944 20.4893 87.081 20.8085 87.081 21.1336C87.081 21.4588 86.9944 21.7779 86.8302 22.0576C86.6559 22.3232 86.4136 22.5361 86.1291 22.6735C85.9484 22.7616 85.7549 22.8198 85.556 22.846C85.2487 22.8856 84.9389 22.9021 84.6292 22.8953L83.7147 22.9015ZM84.9707 21.8174C85.1872 21.83 85.4017 21.7693 85.5803 21.6449C85.6492 21.5777 85.7025 21.4958 85.7362 21.4053C85.7699 21.3147 85.7833 21.2177 85.7754 21.1213C85.7828 21.0264 85.7697 20.931 85.7371 20.8417C85.7045 20.7524 85.6531 20.6713 85.5864 20.6039C85.4198 20.4792 85.2139 20.4201 85.0072 20.4376H84.9524L84.9707 21.8174Z"
    fill="black" />
  <path
    d="M91.226 21.1275C91.2301 21.379 91.1824 21.6287 91.0858 21.8605C90.9981 22.0932 90.8607 22.3035 90.6834 22.4765C90.51 22.6514 90.3024 22.7878 90.0737 22.8768C89.5996 23.0656 89.0723 23.0656 88.5983 22.8768C88.3696 22.7878 88.1619 22.6514 87.9886 22.4765C87.8098 22.3047 87.6722 22.0941 87.5862 21.8605C87.4075 21.3885 87.4075 20.8665 87.5862 20.3945C87.6706 20.1601 87.8085 19.9491 87.9886 19.7785C88.1619 19.6036 88.3696 19.4672 88.5983 19.3782C88.8348 19.2828 89.0874 19.2347 89.3421 19.2365C89.5966 19.2359 89.849 19.284 90.0859 19.3782C90.3136 19.4691 90.5209 19.6052 90.6956 19.7785C90.8685 19.9539 91.0034 20.1637 91.0919 20.3945C91.1836 20.6276 91.2292 20.8767 91.226 21.1275V21.1275ZM89.3421 21.7989C89.4223 21.8019 89.5022 21.7869 89.576 21.755C89.6498 21.723 89.7157 21.6749 89.7689 21.6141C89.8832 21.4791 89.9421 21.305 89.9335 21.1275C89.9418 20.9482 89.8831 20.7723 89.7689 20.6347C89.7157 20.5739 89.6498 20.5258 89.576 20.4939C89.5022 20.4619 89.4223 20.4469 89.3421 20.4499C89.2603 20.4463 89.1788 20.4616 89.1037 20.4947C89.0287 20.5278 88.9622 20.5778 88.9092 20.6409C88.8024 20.7802 88.7445 20.9513 88.7445 21.1275C88.7445 21.3037 88.8024 21.4748 88.9092 21.6141C88.9633 21.6754 89.0302 21.7237 89.1051 21.7557C89.1799 21.7877 89.2609 21.8024 89.3421 21.7989"
    fill="black" />
  <path
    d="M96.5241 21.1275C96.5254 21.3787 96.4777 21.6278 96.3839 21.8605C96.2892 22.0863 96.1509 22.2909 95.9771 22.4622C95.8034 22.6335 95.5976 22.7682 95.3718 22.8583C94.8957 23.0475 94.3664 23.0475 93.8903 22.8583C93.6626 22.7674 93.4552 22.6313 93.2806 22.4579C93.1035 22.286 92.968 22.0752 92.8843 21.842C92.7056 21.37 92.7056 20.848 92.8843 20.376C92.9663 20.1419 93.1022 19.9308 93.2806 19.76C93.4539 19.585 93.6616 19.4487 93.8903 19.3596C94.127 19.2649 94.3795 19.2168 94.6341 19.218C94.8886 19.2174 95.141 19.2655 95.3779 19.3596C95.6056 19.4505 95.8129 19.5867 95.9876 19.76C96.1625 19.9337 96.2978 20.1439 96.3839 20.376C96.4777 20.6087 96.5254 20.8577 96.5241 21.109V21.1275ZM94.6341 21.7804C94.7152 21.7835 94.796 21.7685 94.8708 21.7366C94.9456 21.7046 95.0126 21.6565 95.067 21.5956C95.177 21.4585 95.2334 21.2853 95.2255 21.109C95.2332 20.9308 95.1769 20.7558 95.067 20.6162C95.0126 20.5553 94.9456 20.5072 94.8708 20.4752C94.796 20.4433 94.7152 20.4283 94.6341 20.4314C94.5523 20.4282 94.471 20.4437 94.396 20.4768C94.321 20.5099 94.2544 20.5596 94.2012 20.6224C94.0944 20.7616 94.0365 20.9328 94.0365 21.109C94.0365 21.2851 94.0944 21.4563 94.2012 21.5956C94.2556 21.6565 94.3225 21.7046 94.3973 21.7366C94.4721 21.7685 94.5529 21.7835 94.6341 21.7804Z"
    fill="black" />
  <path
    d="M97.0118 22.9076V19.335H98.7007C99.0046 19.3167 99.3051 19.4084 99.5481 19.5937C99.649 19.6819 99.7288 19.7919 99.7816 19.9157C99.8344 20.0394 99.8588 20.1736 99.8529 20.3082C99.8596 20.4824 99.8081 20.6538 99.7066 20.7948C99.6063 20.9274 99.4606 21.0174 99.2981 21.0474C99.5046 21.0798 99.6951 21.1793 99.8407 21.3307C99.9757 21.5334 100.033 21.7786 100.003 22.021C99.9728 22.2633 99.8567 22.4864 99.6761 22.6489C99.3858 22.8414 99.041 22.9323 98.6946 22.9076H97.0118ZM98.2007 20.185V20.684H98.3653C98.4491 20.6903 98.5326 20.6686 98.6031 20.6224C98.6307 20.5994 98.6523 20.5701 98.6661 20.5368C98.68 20.5035 98.6855 20.4673 98.6824 20.4314C98.6857 20.3972 98.6801 20.3628 98.6662 20.3315C98.6523 20.3001 98.6306 20.273 98.6031 20.2528C98.5347 20.2015 98.4501 20.1774 98.3653 20.185H98.2007ZM98.2007 21.4539V22.0206H98.4141C98.5172 22.0306 98.6205 22.0045 98.7067 21.9467C98.7407 21.924 98.7682 21.8928 98.7864 21.856C98.8045 21.8192 98.8128 21.7783 98.8104 21.7372C98.8117 21.6964 98.8029 21.6559 98.7848 21.6193C98.7667 21.5827 98.7399 21.5513 98.7067 21.5278C98.6192 21.4729 98.5169 21.4471 98.4141 21.4539H98.2007Z"
    fill="black" />
  <path
    d="M100.426 22.9076V19.3351H102.023C102.402 19.3098 102.777 19.4187 103.084 19.6431C103.208 19.7541 103.306 19.8922 103.369 20.047C103.433 20.2017 103.46 20.369 103.45 20.5362C103.458 20.7562 103.393 20.9727 103.267 21.1522C103.207 21.2313 103.132 21.2977 103.046 21.3474C102.96 21.397 102.865 21.4291 102.767 21.4417L103.712 22.8953H102.286L101.676 21.7127V22.8953L100.426 22.9076ZM101.645 20.259V20.9427H101.84C101.942 20.9495 102.043 20.9164 102.121 20.8503C102.155 20.8185 102.182 20.7793 102.199 20.7355C102.216 20.6917 102.222 20.6446 102.218 20.5978C102.222 20.5492 102.215 20.5005 102.198 20.4548C102.181 20.4092 102.155 20.3676 102.121 20.3329C102.04 20.2716 101.941 20.2411 101.84 20.2467L101.645 20.259Z"
    fill="black" />
  <path
    d="M103.913 22.9076V19.335H106.279V20.3021H105.163V20.647H106.175V21.5586H105.163V21.9405H106.303V22.9076H103.913Z"
    fill="black" />
  <path
    d="M106.773 22.9076V19.3351H108.37C108.748 19.3098 109.124 19.4187 109.431 19.6431C109.555 19.7541 109.652 19.8922 109.716 20.047C109.779 20.2017 109.807 20.369 109.797 20.5362C109.807 20.7566 109.743 20.9739 109.614 21.1522C109.555 21.2311 109.481 21.2974 109.396 21.3471C109.311 21.3968 109.217 21.429 109.12 21.4417L110.065 22.8953H108.638L108.029 21.7127V22.8953L106.773 22.9076ZM108.023 20.259V20.9427H108.218C108.319 20.9495 108.42 20.9164 108.498 20.8503C108.532 20.8185 108.559 20.7793 108.576 20.7355C108.593 20.6917 108.6 20.6446 108.596 20.5978C108.6 20.5486 108.595 20.499 108.579 20.4522C108.563 20.4055 108.538 20.3627 108.504 20.3268C108.424 20.2655 108.324 20.2349 108.224 20.2405L108.023 20.259Z"
    fill="black" />
  <path
    d="M113.918 21.1275C113.921 21.3783 113.876 21.6274 113.784 21.8605C113.588 22.3133 113.225 22.6711 112.772 22.8583C112.536 22.9554 112.283 23.0036 112.028 23C111.775 23.0048 111.524 22.9566 111.291 22.8583C111.063 22.7675 110.856 22.6313 110.681 22.458C110.504 22.2845 110.367 22.0743 110.278 21.842C110.1 21.37 110.1 20.848 110.278 20.376C110.365 20.1428 110.503 19.9323 110.681 19.7601C110.854 19.5845 111.062 19.448 111.291 19.3597C111.527 19.2655 111.78 19.2174 112.034 19.218C112.289 19.2162 112.542 19.2643 112.778 19.3597C113.007 19.4487 113.214 19.5851 113.388 19.7601C113.565 19.9335 113.702 20.1437 113.79 20.376C113.882 20.6091 113.928 20.8582 113.924 21.109L113.918 21.1275ZM112.034 21.7804C112.115 21.7835 112.196 21.7685 112.271 21.7366C112.346 21.7047 112.413 21.6565 112.467 21.5956C112.582 21.4606 112.64 21.2865 112.632 21.109C112.64 20.9297 112.581 20.7538 112.467 20.6162C112.413 20.5553 112.346 20.5072 112.271 20.4753C112.196 20.4433 112.115 20.4284 112.034 20.4314C111.953 20.4283 111.871 20.4438 111.796 20.4768C111.721 20.5099 111.655 20.5597 111.601 20.6224C111.498 20.7633 111.443 20.9339 111.443 21.109C111.443 21.2842 111.498 21.4547 111.601 21.5956C111.656 21.6565 111.723 21.7047 111.798 21.7366C111.872 21.7685 111.953 21.7835 112.034 21.7804"
    fill="black" />
</svg>